<svg width="21" height="21" viewBox="0 0 21 21" fill="none" xmlns="http://www.w3.org/2000/svg">
<path d="M16.1875 0H4.8125C3.53615 0 2.31207 0.50703 1.40955 1.40955C0.50703 2.31207 0 3.53615 0 4.8125V16.1875C0 16.8195 0.124479 17.4453 0.36633 18.0292C0.60818 18.613 0.962667 19.1436 1.40955 19.5905C1.85643 20.0373 2.38696 20.3918 2.97084 20.6337C3.55472 20.8755 4.18051 21 4.8125 21H16.1875C16.8195 21 17.4453 20.8755 18.0292 20.6337C18.613 20.3918 19.1436 20.0373 19.5905 19.5905C20.0373 19.1436 20.3918 18.613 20.6337 18.0292C20.8755 17.4453 21 16.8195 21 16.1875V4.8125C21 4.18051 20.8755 3.55472 20.6337 2.97084C20.3918 2.38696 20.0373 1.85643 19.5905 1.40955C19.1436 0.962667 18.613 0.60818 18.0292 0.36633C17.4453 0.124479 16.8195 0 16.1875 0ZM17.4103 7.14L8.73031 15.82C8.68968 15.8607 8.64143 15.8929 8.58832 15.915C8.53521 15.937 8.47828 15.9483 8.42078 15.9483C8.36329 15.9483 8.30636 15.937 8.25324 15.915C8.20013 15.8929 8.15188 15.8607 8.11125 15.82L3.58969 11.3006C3.54901 11.26 3.51674 11.2117 3.49472 11.1586C3.47271 11.1055 3.46137 11.0486 3.46137 10.9911C3.46137 10.9336 3.47271 10.8767 3.49472 10.8236C3.51674 10.7704 3.54901 10.7222 3.58969 10.6816L4.93281 9.33844C4.97344 9.29776 5.0217 9.26549 5.07481 9.24347C5.12792 9.22146 5.18485 9.21012 5.24234 9.21012C5.29984 9.21012 5.35677 9.22146 5.40988 9.24347C5.46299 9.26549 5.51124 9.29776 5.55187 9.33844L8.41969 12.2084L15.4481 5.18C15.4888 5.13932 15.537 5.10705 15.5901 5.08504C15.6432 5.06302 15.7002 5.05169 15.7577 5.05169C15.8152 5.05169 15.8721 5.06302 15.9252 5.08504C15.9783 5.10705 16.0266 5.13932 16.0672 5.18L17.4103 6.52094C17.451 6.56157 17.4833 6.60982 17.5053 6.66293C17.5273 6.71604 17.5386 6.77297 17.5386 6.83047C17.5386 6.88796 17.5273 6.94489 17.5053 6.998C17.4833 7.05112 17.451 7.09937 17.4103 7.14Z" fill="#FEFEFE"/>
</svg>
