<svg width="1349" height="401" viewBox="0 0 1349 401" fill="none" xmlns="http://www.w3.org/2000/svg">
<path d="M1026.12 401H1348.05L1187.76 0.00375677H1032.49L900.065 332.66L841.64 332.656C768.92 332.652 709.97 273.702 709.97 200.982C709.97 128.262 768.924 69.3085 841.644 69.3085H928.795L956.5 0H842.128C771.724 0 709.794 36.2925 674.027 91.1853C638.256 36.2925 576.33 0 505.925 0H391.553L419.259 69.3085H506.41C579.13 69.3085 638.083 128.262 638.083 200.982C638.083 273.702 579.133 332.652 506.413 332.656L447.989 332.66L315.564 0.00375677H160.291L0 401H328.678L302.736 332.664H102.655L208.342 69.3122H268.782L398.148 401H505.925C576.33 401 638.26 364.708 674.027 309.815C709.798 364.708 771.724 401 842.128 401H950.004L1079.27 69.3122H1139.71L1245.4 332.664H1052.75L1026.12 401Z" fill="white"/>
</svg>
