<svg width="3156" height="502" viewBox="0 0 3156 502" fill="none" xmlns="http://www.w3.org/2000/svg">
<path fill-rule="evenodd" clip-rule="evenodd" d="M3155.19 0H0.814453V502H3155.19V0ZM342.564 298.616H246.413L294.037 154.841H294.94L342.564 298.616ZM356.784 342.854L382.289 416.435H434.878L315.254 87.3546H273.498L153.874 416.435H206.689L231.968 342.854H356.784ZM470.314 87.3546V416.435H520.195V211.267H521.098L589.938 369.262H631.468L700.309 211.267H701.437V416.435H751.319V87.3546H704.146L611.606 301.776L517.261 87.3546H470.314ZM820.61 87.3546V416.435H870.492V87.3546H820.61ZM939.783 87.3546V416.435H989.665V182.603H990.567L1139.31 416.435H1186.48V87.3546H1136.6V321.186H1135.7L986.73 87.3546H939.783ZM1464.78 369.262C1428.66 368.961 1397.52 358.052 1371.33 336.534L1338.61 374.002C1373.67 404.096 1415.57 419.143 1464.33 419.143C1539.71 418.24 1578.23 386.34 1579.89 323.444C1579.89 300.121 1572.59 279.656 1557.99 262.051C1543.25 244.145 1520.45 233.086 1489.6 228.873C1473.96 226.916 1461.62 225.186 1452.59 223.681C1436.34 220.672 1424.53 215.255 1417.15 207.43C1409.78 199.756 1406.09 191.18 1406.09 181.7C1406.39 165.9 1411.89 154.013 1422.57 146.038C1432.8 138.364 1445.59 134.527 1460.94 134.527C1490.58 135.129 1517.74 143.555 1542.42 159.806L1570.18 118.728C1539.94 96.9095 1504.35 85.549 1463.42 84.6461C1429.42 84.9471 1403.16 93.8249 1384.65 111.279C1365.54 128.885 1355.99 152.057 1355.99 180.797C1355.99 204.722 1363.58 225.036 1378.78 241.738C1393.53 257.989 1415.05 268.446 1443.33 273.111C1459.13 275.368 1473.65 277.399 1486.9 279.205C1515.79 284.171 1530.08 298.917 1529.78 323.444C1529.18 353.387 1507.51 368.66 1464.78 369.262ZM1787.09 298.616H1690.93L1738.56 154.841H1739.46L1787.09 298.616ZM1801.3 342.854L1826.81 416.435H1879.4L1759.77 87.3546H1718.02L1598.39 416.435H1651.21L1676.49 342.854H1801.3ZM1914.84 87.3546V416.435H2124.97V369.262H1964.72V87.3546H1914.84ZM2172.14 87.3546V416.435H2222.02V211.267H2222.92L2291.76 369.262H2333.29L2402.14 211.267H2403.26V416.435H2453.15V87.3546H2405.97L2313.43 301.776L2219.09 87.3546H2172.14ZM2522.44 87.3546V416.435H2732.57V369.262H2572.32V272.66H2709.1V228.421H2572.32V134.527H2732.57V87.3546H2522.44ZM2779.74 87.3546V416.435H2989.87V369.262H2829.62V272.66H2966.4V228.421H2829.62V134.527H2989.87V87.3546H2779.74Z" fill="white"/>
</svg>
