<svg width="4958" height="500" viewBox="0 0 4958 500" fill="none" xmlns="http://www.w3.org/2000/svg">
<path d="M1545.1 12.3299C1543.48 19.1437 1539.58 36.3403 1536.34 50.6167C1533.42 64.8932 1530.17 79.8185 1529.2 83.7121L1527.58 91.1748H1611.61H1695.98L1703.11 57.7549C1707.01 39.5849 1711.55 19.1437 1712.85 12.3299L1715.77 0.324703H1631.73H1548.02L1545.1 12.3299Z" fill="white"/>
<path d="M2020.44 12.3297C2019.47 19.1434 2014.6 42.1804 2010.06 63.5951C2005.52 85.0098 1999.35 113.563 1996.76 126.866C1989.94 162.557 1990.59 161.908 1975.02 147.307C1950.36 124.594 1912.39 113.887 1857.56 113.887C1799.81 113.887 1739.13 134.004 1697.27 167.424C1687.54 175.211 1679.1 181.376 1678.78 181.051C1678.46 180.727 1680.08 170.019 1682.67 157.69C1684.94 145.036 1686.89 132.382 1687.22 129.137C1687.22 123.946 1678.46 123.621 1543.8 123.621L1400.06 123.946L1369.24 179.753C1352.37 210.578 1325.76 257.949 1310.51 285.529L1282.28 335.172L1280.01 311.486C1279.04 298.183 1276.77 278.715 1275.15 268.008C1273.52 257.3 1268.98 225.178 1265.41 196.626C1261.84 168.073 1257.95 139.844 1256.98 134.004L1255.03 123.621H1160.93C1068.46 123.621 1066.84 123.621 1068.46 130.11C1069.76 135.626 1069.11 135.951 1063.92 133.355C1049.64 125.568 1014.93 116.807 984.75 113.563C963.984 110.967 922.129 110.318 869.565 111.616C801.428 113.238 781.96 114.86 759.247 120.376C721.285 129.461 700.195 138.546 678.131 154.77L659.312 168.397L658.014 143.738C654.445 80.7917 610.967 36.989 536.016 20.7658C514.276 15.8988 483.128 14.9254 304.348 13.952L97.6639 12.9786L94.4192 25.3083C92.7969 32.122 90.5256 42.8294 89.2278 48.9942C88.2544 55.159 84.6853 72.6801 81.4406 87.9299C77.8715 103.18 72.0312 130.759 68.1376 149.578C64.244 168.397 58.4036 195.977 55.159 211.226C51.9143 226.476 46.074 252.758 42.5049 269.63C38.9358 286.502 33.0954 315.055 29.2018 332.901C25.3082 350.746 19.4679 379.299 15.8988 396.171C12.3297 413.043 7.13822 436.08 4.54251 447.112C1.94679 458.144 0 471.772 0 477.287V487.346L207.008 486.372C388.06 485.075 416.937 484.426 439.65 479.559C482.479 470.149 518.495 454.899 545.75 434.134L560.026 423.102L564.244 436.729C576.574 478.585 629.461 500 719.663 500C791.045 500 844.257 488.644 887.411 464.633L903.634 455.548L902.661 471.123L901.363 487.021H987.67C1054.51 487.021 1073.98 486.048 1073.98 482.803C1073.98 480.857 1072.36 473.069 1070.73 465.931C1067.81 452.628 1070.73 430.565 1084.04 371.836C1087.61 355.613 1093.77 328.034 1097.66 309.864L1104.8 277.093L1130.76 381.895L1156.72 487.021H1251.46H1346.2L1382.54 432.511C1446.79 337.119 1486.7 277.742 1488.32 276.119C1489.29 275.146 1489.29 277.417 1487.99 280.986C1486.37 286.827 1469.18 367.943 1453.28 445.49C1450.03 463.011 1446.14 479.234 1445.17 482.154C1443.54 486.372 1453.28 487.021 1527.58 487.021C1605.45 487.021 1612.26 486.697 1613.89 481.181C1614.86 478.261 1617.13 466.256 1619.4 454.575C1621.67 442.894 1623.62 432.836 1624.27 432.187C1624.92 431.538 1632.71 439.001 1641.47 448.735C1672.29 482.479 1719.99 500 1781.31 500C1836.15 500 1884.49 486.697 1918.24 462.362C1928.94 454.899 1934.13 452.628 1932.51 456.197C1931.54 459.117 1929.59 467.229 1928.62 474.367L1926.35 487.021H2007.46H2088.9L2090.53 477.936C2091.82 473.069 2098.64 440.623 2105.78 405.905C2113.24 371.188 2122 329.332 2125.24 313.433C2128.81 297.21 2135.3 266.71 2139.84 245.295C2144.39 223.881 2149.58 199.87 2151.2 191.759C2152.82 183.647 2158.01 159.637 2162.56 138.222C2167.1 116.807 2172.94 88.9033 2175.54 76.5737C2178.13 63.9196 2182.35 44.4517 2184.94 32.7709C2193.71 -3.24462 2201.82 0.324486 2106.1 0.324486H2022.39L2020.44 12.3297ZM402.336 141.791C427.969 147.631 443.219 158.988 451.979 178.131C457.495 190.785 458.144 197.599 456.522 223.881C453.602 276.444 433.16 318.949 400.389 340.688C372.81 358.858 359.182 361.454 281.635 363.076L211.226 364.374L213.822 353.342C215.445 347.502 219.663 327.385 223.881 308.566C234.912 254.705 242.7 219.014 251.46 178.456C256.003 157.69 259.572 139.844 259.572 138.546C259.572 134.004 381.246 136.6 402.336 141.791ZM923.426 203.115C940.623 209.929 945.49 218.04 940.947 232.641C934.783 250.811 926.022 253.082 855.613 256.652C725.178 263.465 680.727 268.657 648.28 280.986C644.062 282.609 644.062 280.013 648.605 259.896L653.796 237.184H720.312H786.827L793.965 225.827C802.726 212.524 816.029 205.062 840.363 199.221C862.427 194.03 906.23 195.977 923.426 203.115ZM1932.84 237.508C1954.25 246.593 1960.42 259.247 1958.79 290.72C1956.52 333.874 1939.97 359.831 1904.93 376.055C1890.01 382.868 1882.54 384.166 1855.94 384.166C1820.25 384.166 1805.32 378.975 1792.34 362.103C1785.85 353.342 1784.56 348.151 1784.56 328.683C1784.56 301.428 1790.72 283.582 1806.29 263.79C1832.25 231.992 1891.3 219.338 1932.84 237.508ZM923.102 335.172C913.692 379.624 875.081 404.607 810.837 408.177C762.492 410.772 744.322 402.012 745.295 375.73C745.944 365.023 748.215 360.156 755.678 353.342C768.657 341.661 780.986 338.741 835.496 334.523C860.48 332.252 887.411 329.656 895.522 328.034C924.4 323.167 925.373 323.491 923.102 335.172Z" fill="white"/>
<path d="M2534.39 6.81378C2400.38 33.7443 2317.64 106.1 2282.28 226.801C2258.92 308.241 2266.05 379.299 2303.04 427.969C2325.11 457.171 2374.1 482.479 2430.56 493.835C2459.76 500 2472.09 500.324 2544.77 499.351C2607.72 498.378 2631.73 496.755 2649.25 492.213C2682.99 484.101 2713.17 471.772 2734.91 457.82L2754.37 445.165L2760.21 465.282L2766.38 485.399L2881.89 486.372L2997.72 487.021L3000.97 475.016C3004.21 463.011 3013.62 419.533 3021.08 381.57C3034.71 311.811 3053.21 284.88 3101.55 265.737C3117.12 259.572 3125.89 258.598 3163.52 258.598C3195.97 258.598 3212.19 259.896 3225.82 264.114C3235.88 267.034 3244.96 269.63 3245.94 269.63C3246.91 269.63 3248.53 262.167 3249.83 253.407L3252.1 237.184H3312.45L3372.8 236.859L3379.29 226.476C3397.14 198.248 3470.79 185.918 3512.97 204.737C3525.63 210.253 3526.92 211.875 3526.92 222.258C3526.92 250.162 3520.11 252.758 3441.59 256.652C3334.84 262.167 3287.79 266.385 3262.16 273.199C3189.48 292.018 3150.54 334.199 3147.62 395.522C3146.33 433.16 3148.6 441.921 3165.15 460.415C3190.45 488.319 3231.34 500 3305.64 500C3377.02 500 3430.23 488.644 3473.39 464.633L3489.61 455.548L3488.64 471.123L3487.34 487.021H3573H3658.98L3657.36 461.713C3656.39 443.219 3658.01 427.644 3663.2 403.958C3672.61 361.454 3681.04 321.544 3685.91 296.236L3690.13 275.47L3716.41 380.597L3742.69 485.399L3837.44 486.372L3931.86 487.021L3968.52 432.836C3988.96 402.661 4014.27 364.698 4025.3 348.151L4045.42 317.975L4046.72 354.64C4048.01 383.842 4049.64 394.549 4055.48 407.203C4070.08 438.352 4102.2 465.607 4141.78 480.208C4212.84 506.814 4352.04 506.489 4431.86 478.91C4456.19 470.798 4491.88 452.628 4506.48 441.272C4510.7 437.703 4514.92 435.432 4515.57 436.405C4516.22 437.054 4514.59 448.41 4511.67 461.389C4509.08 474.692 4506.81 485.724 4506.81 486.048C4506.81 486.697 4544.77 487.021 4590.84 487.021H4675.2L4678.77 468.202C4680.72 458.144 4687.53 426.995 4693.37 399.416C4699.54 371.836 4708.62 328.034 4714.14 302.077C4719.66 276.119 4727.77 237.508 4732.31 216.093C4736.85 194.679 4742.69 166.775 4745.29 154.445C4747.88 141.791 4753.72 114.212 4758.27 92.7969C4772.22 27.904 4776.11 8.76057 4776.11 4.21806C4776.11 0.973416 4758.27 0.324486 4692.73 0.973416L4609.01 1.94681L4602.2 34.3933C4598.63 52.2388 4589.22 97.0149 4581.43 133.679L4567.16 200.844L4558.72 187.216C4538.6 156.068 4504.86 134.004 4454.89 120.052C4429.26 112.914 4421.8 112.265 4349.44 112.589C4275.79 112.589 4269.95 112.914 4240.75 121.025C4206.35 130.435 4185.59 138.222 4170.99 146.982C4156.06 155.743 4154.76 154.121 4165.79 140.169C4171.31 133.355 4175.85 126.541 4175.85 125.568C4175.85 124.594 4133.02 123.621 4081.11 123.621H3986.04L3929.58 225.827C3898.44 282.284 3871.83 327.06 3870.53 325.762C3868.26 323.491 3862.74 284.555 3849.77 178.78C3846.85 156.392 3843.93 134.977 3842.95 130.759L3841.65 123.621H3747.24C3654.44 123.621 3652.82 123.621 3654.44 130.11C3655.74 135.626 3655.09 135.951 3649.9 133.355C3635.62 125.568 3600.9 116.807 3570.73 113.563C3550.61 111.291 3507.46 110.318 3457.16 111.616C3365.99 113.238 3333.22 118.754 3292.98 137.573C3271.57 147.631 3271.57 147.956 3274.17 140.493C3275.79 136.275 3277.09 129.461 3277.09 125.243C3277.09 118.43 3275.14 117.132 3262.16 115.185C3237.83 111.616 3183.32 115.834 3161.25 123.297C3126.86 134.653 3097.01 151.849 3070.73 176.184L3057.42 188.514L3061.64 166.45C3063.91 154.445 3066.83 139.844 3068.13 134.004L3070.08 123.621H2992.21H2914.33L2912.06 112.914C2908.49 97.0149 2892.27 70.4088 2878.32 57.7547C2850.09 32.4465 2812.45 16.5477 2755.35 6.81378C2703.43 -2.27123 2579.81 -2.27123 2534.39 6.81378ZM2663.85 125.568C2685.26 132.057 2698.24 144.387 2703.43 163.855L2707.33 178.78H2800.77H2894.22L2893.89 185.918C2893.57 190.136 2892.6 197.599 2891.3 203.115L2889.35 212.849L2764.43 214.471L2639.51 216.093L2633.67 243.673C2630.43 258.923 2625.24 283.258 2621.99 297.859L2616.15 324.789H2652.82C2673.26 324.789 2689.8 326.087 2689.8 327.709C2689.8 329.007 2682.02 337.768 2672.61 346.528C2646.65 371.188 2626.21 378.001 2577.86 378.001C2545.42 378.001 2536.01 377.028 2521.08 370.863C2499.34 362.427 2480.85 344.257 2474.04 325.114C2460.41 286.178 2475.66 214.471 2506.81 171.966C2536.98 130.435 2608.69 109.345 2663.85 125.568ZM4391.62 211.226C4407.85 219.338 4416.28 230.37 4420.5 247.567L4422.45 256.652H4328.35C4276.76 256.652 4234.26 255.354 4234.26 254.056C4234.26 252.758 4238.8 245.295 4243.99 237.833C4264.11 210.902 4290.39 201.493 4341.33 202.466C4370.21 203.115 4377.99 204.413 4391.62 211.226ZM3510.7 329.007C3510.7 331.278 3508.43 340.039 3505.51 348.151C3492.21 387.735 3441.91 411.421 3378.32 408.825C3358.2 407.852 3350.09 405.905 3342.95 400.714C3329.32 390.655 3326.73 379.948 3334.19 365.023C3343.6 346.204 3355.93 340.688 3398.11 337.119C3418.23 335.172 3448.4 331.927 3465.28 329.656C3507.13 324.14 3510.7 324.14 3510.7 329.007ZM4534.39 357.884C4533.09 363.725 4531.47 369.565 4530.49 370.863C4529.84 372.485 4497.07 373.459 4457.81 373.459H4386.43L4374.43 383.193C4354.63 398.767 4337.44 403.634 4299.15 403.958C4272.54 403.958 4261.51 402.661 4249.18 397.794C4231.34 390.331 4216.41 374.108 4213.49 357.884L4211.87 347.502H4374.1H4536.66L4534.39 357.884Z" fill="white"/>
<path d="M4785.85 31.797C4781.96 49.3181 4776.12 75.9242 4772.87 91.174C4767.03 117.78 4761.52 143.088 4746.92 212.848C4737.51 257.624 4728.1 301.752 4721.28 334.523C4718.04 349.772 4711.87 378.001 4707.98 397.793C4703.76 417.261 4697.92 444.516 4695 457.819C4691.76 471.122 4689.81 483.127 4690.78 484.425C4691.43 486.047 4729.07 487.021 4774.49 487.021H4856.58L4863.72 455.223C4867.62 438.027 4873.46 409.798 4877.03 392.926C4880.59 376.054 4886.43 349.772 4889.68 334.523C4892.92 319.273 4898.76 291.693 4902.66 272.874C4906.55 254.055 4912.39 226.476 4915.96 211.226C4921.48 185.593 4925.05 168.397 4941.92 87.9294C4945.49 71.0572 4950.68 48.0202 4953.27 36.9884C4955.87 25.9567 4957.82 12.9781 4957.82 8.43556V0.323945H4875.4H4792.66L4785.85 31.797Z" fill="white"/>
</svg>
