<svg width="1509" height="500" viewBox="0 0 1509 500" fill="none" xmlns="http://www.w3.org/2000/svg">
<path fill-rule="evenodd" clip-rule="evenodd" d="M632.461 0.144536C608.348 2.55588 590.933 9.85661 578.743 22.7168C572.849 28.9459 570.437 32.4289 566.82 40.1317C558.046 58.6851 557.845 78.3772 566.285 95.524C568.964 100.949 570.37 102.825 575.796 108.25C587.584 119.905 594.952 122.986 635.81 133.033C652.019 137.051 667.96 141.271 671.175 142.343C682.16 146.094 689.795 151.452 693.211 157.949C694.484 160.36 694.685 161.834 694.685 166.924C694.685 172.417 694.484 173.422 692.541 177.44C689.862 182.866 683.566 188.827 677.538 191.841C667.357 196.798 658.516 198.405 644.517 197.802C624.356 196.931 611.63 192.511 603.123 183.268C596.492 176.168 593.947 168.532 593.947 155.739C593.947 151.452 593.612 147.031 593.21 145.893C592.072 142.611 589.794 142.276 571.978 142.544C553.156 142.812 554.161 142.276 553.424 151.921C552.152 168.934 556.974 188.291 565.816 201.419C569.5 206.844 577.671 215.016 582.895 218.566C605.468 233.77 641.704 239.33 674.658 232.766C693.479 228.948 710.425 219.973 719.735 208.854C738.892 185.813 740.298 151.318 723.017 129.282C715.114 119.302 702.521 111.264 685.71 105.571C682.227 104.432 666.084 100.146 649.875 96.1268C633.666 92.108 618.328 88.0223 615.716 87.1515C603.525 82.7309 599.038 75.497 600.645 62.8379C601.516 56.2068 603.726 51.7192 608.348 47.3655C615.783 40.2657 624.691 37.6532 641.168 37.6532C653.693 37.6532 658.315 38.5912 666.754 42.6099C679.547 48.8391 686.647 59.2879 687.451 73.0858C687.987 81.6592 688.59 83.2667 691.604 84.1374C693.211 84.6063 699.775 84.8072 709.688 84.6733L725.362 84.4723L726.701 82.7978C727.974 81.2573 728.041 80.4535 727.706 71.7462C726.969 51.7192 719.467 34.8402 705.87 22.4489C694.216 11.7991 678.074 4.49823 659.252 1.41722C653.157 0.412523 637.35 -0.324256 632.461 0.144536Z" fill="white"/>
<path fill-rule="evenodd" clip-rule="evenodd" d="M107 3.15862C82.5526 5.16801 58.1049 15.6169 39.2166 32.1609C20.5293 48.4372 7.40122 71.4782 1.70793 97.5334C0.435314 103.696 0.234375 106.509 0.234375 119.637C0.234375 132.765 0.435314 135.578 1.70793 141.74C9.74551 178.713 32.0498 207.916 64.7359 224.125C101.039 242.21 143.437 240.2 178.334 218.767C189.452 211.935 202.112 200.213 210.819 188.626C215.441 182.464 224.215 166.121 226.157 159.959C227.296 156.543 226.492 154.131 223.813 153.127C221.469 152.189 193.471 152.256 190.859 153.194C189.251 153.729 188.18 155.002 186.103 158.686C174.516 179.651 152.881 194.788 129.304 198.338C86.4374 204.835 47.4552 177.842 38.2789 135.377C37.4752 131.626 37.1403 126.938 37.1403 119.637C37.1403 112.336 37.4752 107.647 38.2789 103.896C46.4505 66.1868 78.6677 39.9307 116.712 39.9307C146.049 39.9307 172.506 55.738 186.84 81.7931C188.515 84.8742 190.457 87.4864 191.395 87.9553C193.471 89.0269 221.871 89.1609 224.483 88.1562C225.488 87.8213 226.626 86.7496 227.028 85.7449C228.033 83.5346 226.358 78.3102 221.067 67.7274C209.479 44.4184 191.998 26.8695 168.957 15.483C153.752 7.98123 141.294 4.4313 125.286 3.0917C116.578 2.35492 116.176 2.35492 107 3.15862Z" fill="white"/>
<path fill-rule="evenodd" clip-rule="evenodd" d="M1347.4 5.03412L1345.79 6.30674L1345.59 115.417C1345.46 190.568 1345.59 225.197 1346.13 226.938C1346.66 228.747 1347.33 229.551 1348.94 230.086C1351.89 231.091 1502.46 231.091 1505.41 230.086C1508.62 228.948 1509.02 226.604 1508.75 210.193C1508.55 196.061 1508.55 195.86 1506.95 194.587C1505.47 193.382 1503.46 193.315 1445.53 193.315H1385.65V117.292V41.2703H1444.52C1485.38 41.2703 1504 41.0694 1505.41 40.5336C1508.62 39.3949 1509.02 37.0505 1508.75 20.6404C1508.55 6.50761 1508.55 6.30674 1506.95 5.03412C1505.41 3.82842 1503.19 3.76151 1427.17 3.76151C1351.15 3.76151 1348.94 3.82842 1347.4 5.03412Z" fill="white"/>
<path fill-rule="evenodd" clip-rule="evenodd" d="M275.789 5.7709C274.449 7.1105 274.449 7.98124 274.449 117.627C274.449 227.273 274.449 228.144 275.789 229.484C277.061 230.756 277.999 230.823 294.141 230.823C309.882 230.823 311.288 230.756 312.695 229.551L314.302 228.278V117.627V6.97654L312.695 5.70392C311.288 4.49822 309.882 4.4313 294.141 4.4313C277.999 4.4313 277.061 4.49822 275.789 5.7709Z" fill="white"/>
<path fill-rule="evenodd" clip-rule="evenodd" d="M350.808 5.7709C349.401 7.17741 349.401 7.37842 349.669 84.3384L349.87 161.499L351.411 168.197C360.52 208.72 386.106 230.756 428.773 234.909C458.177 237.789 486.777 229.417 505.13 212.672C516.047 202.692 524.353 186.751 528.438 168.13C529.912 161.566 529.912 160.628 530.113 84.3384C530.381 7.4454 530.381 7.17741 528.974 5.7709C527.702 4.49822 526.831 4.4313 510.622 4.4313C494.882 4.4313 493.475 4.49822 492.068 5.70392L490.461 6.97654L490.059 82.262C489.724 155.471 489.657 157.614 488.318 163.509C487.581 166.791 486.308 171.144 485.504 173.087C480.749 185.076 470.635 193.449 457.306 196.463C449.938 198.137 429.375 198.137 422.275 196.463C406.669 192.779 396.421 182.598 392.335 166.724C389.857 156.878 389.656 151.251 389.656 78.2432C389.656 7.98123 389.656 7.1105 388.317 5.7709C387.044 4.49822 386.106 4.4313 369.562 4.4313C352.951 4.4313 352.081 4.49822 350.808 5.7709Z" fill="white"/>
<path fill-rule="evenodd" clip-rule="evenodd" d="M761.998 5.70392L760.391 6.97654V117.627V228.278L761.998 229.551C763.539 230.756 765.749 230.823 842.441 230.823C919.133 230.823 921.343 230.756 922.884 229.551C924.491 228.278 924.491 228.278 924.491 212.404C924.491 196.53 924.491 196.53 922.884 195.257C921.41 194.051 919.401 193.984 860.793 193.984H800.244V117.962V41.9401H859.119C899.977 41.9401 918.597 41.7392 920.004 41.2034C923.219 40.0647 923.62 37.7203 923.353 21.3102C923.152 7.17741 923.152 6.97654 921.544 5.70392C920.004 4.49822 917.793 4.4313 841.771 4.4313C765.749 4.4313 763.539 4.49822 761.998 5.70392Z" fill="white"/>
<path fill-rule="evenodd" clip-rule="evenodd" d="M947.533 5.70392L945.926 6.97654V117.627V228.278L947.533 229.551C948.94 230.756 950.346 230.823 966.02 230.823C981.693 230.823 983.1 230.756 984.506 229.551L986.114 228.278L986.315 135.042L986.449 41.8732L1021.14 42.0741C1055.3 42.342 1055.84 42.342 1059.93 43.8156C1072.32 48.4372 1078.08 56.7427 1078.75 70.9424C1079.42 86.0129 1075.06 95.3231 1064.95 100.748C1057.78 104.566 1054.5 105.035 1032.06 105.37C1013.31 105.705 1011.63 105.839 1010.49 106.978C1009.29 108.183 1009.22 109.456 1009.22 123.99C1009.22 138.86 1009.29 139.798 1010.56 141.07C1011.83 142.343 1012.77 142.41 1034.61 142.41C1059.12 142.41 1063.81 141.941 1074.33 138.659C1096.23 131.76 1110.76 116.422 1116.93 93.6486C1118.53 87.6204 1118.67 86.1468 1118.67 73.4207C1118.67 60.4935 1118.53 59.2879 1116.79 52.9918C1109.96 28.0082 1093.82 12.7368 1067.56 6.23976C1062 4.90016 1060.13 4.83311 1005.47 4.63224C950.48 4.36432 949.141 4.4313 947.533 5.70392Z" fill="white"/>
<path fill-rule="evenodd" clip-rule="evenodd" d="M1143.85 5.7709C1142.51 7.1105 1142.51 7.98124 1142.51 117.627C1142.51 227.273 1142.51 228.144 1143.85 229.484C1145.12 230.756 1146.06 230.823 1162.2 230.823C1177.94 230.823 1179.35 230.756 1180.75 229.551L1182.36 228.278L1182.56 135.042L1182.7 41.8732L1217.39 42.0741C1251.28 42.275 1252.09 42.342 1255.97 43.8156C1264.61 47.0306 1270.44 52.255 1273.25 59.2209C1274.59 62.6369 1274.73 64.2444 1274.79 73.4207C1274.79 82.7309 1274.66 84.2044 1273.25 87.5534C1270.51 94.4523 1264.34 100.079 1256.71 102.825C1250.75 104.901 1243.18 105.571 1225.5 105.571C1210.89 105.571 1209.49 105.638 1208.08 106.844C1206.47 108.116 1206.47 108.116 1206.47 123.99V139.865L1208.15 141.204C1209.69 142.477 1210.63 142.477 1234.27 142.209C1258.25 142.008 1258.85 141.941 1265.75 140.133C1274.73 137.855 1286.11 132.363 1292.34 127.406C1307.28 115.417 1315.52 96.3278 1315.52 73.4207C1315.52 53.7956 1309.62 37.3183 1298.3 25.396C1290.33 16.9565 1282.03 11.7991 1270.57 8.18211C1258.92 4.49822 1257.24 4.4313 1198.97 4.4313C1146.06 4.4313 1145.19 4.4313 1143.85 5.7709Z" fill="white"/>
<path fill-rule="evenodd" clip-rule="evenodd" d="M81.1482 105.504C78.0001 107.446 77.5312 109.724 77.5312 123.589C77.5312 137.788 78.0671 139.798 82.2198 141.874C84.4302 143.013 89.1857 143.08 153.419 143.08C230.714 143.08 225.892 143.415 228.236 138.257C229.375 135.779 229.575 133.836 229.575 123.99C229.575 111.13 229.04 108.384 226.159 105.973L224.083 104.231H153.687C85.6358 104.231 83.1576 104.298 81.1482 105.504Z" fill="white"/>
<path fill-rule="evenodd" clip-rule="evenodd" d="M822.279 105.504C820.672 106.777 820.672 106.777 820.672 122.651C820.672 138.525 820.672 138.525 822.279 139.798C823.753 141.003 825.494 141.07 867.893 141.07C910.291 141.07 912.032 141.003 913.506 139.798C915.113 138.525 915.113 138.525 915.113 122.651C915.113 106.777 915.113 106.777 913.506 105.504C912.032 104.298 910.291 104.231 867.893 104.231C825.494 104.231 823.753 104.298 822.279 105.504Z" fill="white"/>
<path fill-rule="evenodd" clip-rule="evenodd" d="M1407.68 105.504C1406.07 106.777 1406.07 106.777 1406.07 122.651C1406.07 138.525 1406.07 138.525 1407.68 139.798C1409.16 141.003 1410.9 141.07 1453.7 141.07C1497.3 141.07 1498.17 141.07 1499.51 139.731C1500.78 138.458 1500.85 137.52 1500.85 122.651C1500.85 107.781 1500.78 106.844 1499.51 105.571C1498.17 104.231 1497.3 104.231 1453.7 104.231C1410.9 104.231 1409.16 104.298 1407.68 105.504Z" fill="white"/>
<path fill-rule="evenodd" clip-rule="evenodd" d="M95.2806 267.327C86.5732 268.6 73.3112 272.217 65.8095 275.499C50.739 281.996 39.6874 289.431 28.6357 300.482C17.3831 311.735 9.34549 323.59 3.45127 337.522C-0.433562 346.698 -0.768461 348.775 1.10697 350.65C2.44657 351.99 3.11637 352.057 19.1245 352.057C28.2338 352.057 36.0704 351.789 36.5393 351.521C37.0082 351.186 38.9506 348.239 40.893 344.823C54.6908 320.71 77.0621 306.176 103.854 303.831C133.325 301.286 161.055 314.682 177.599 339.599C192.2 361.501 194.746 390.369 184.096 415.018C176.862 431.83 162.662 446.565 145.582 454.871C132.856 461.167 119.661 463.511 103.787 462.44C78.3347 460.698 55.5616 446.23 41.8307 423.122C40.0223 420.108 38.0129 417.362 37.3431 417.027C36.6063 416.625 29.3055 416.357 19.6604 416.357C4.05409 416.357 3.11637 416.424 1.84375 417.697C-0.0986624 419.639 0.169256 421.18 3.71919 429.418C18.5217 463.511 47.39 487.892 83.4252 496.666C115.308 504.436 148.061 498.542 176.393 479.854C186.775 473.022 200.707 459.091 207.673 448.508C216.313 435.38 222.274 421.18 225.69 405.641C227.03 399.478 227.164 396.732 227.164 383.202C227.164 369.672 227.03 366.926 225.69 360.764C222.274 345.225 216.313 331.025 207.673 317.897C201.243 308.185 186.775 293.449 177.666 287.287C162.796 277.24 147.994 271.212 130.378 267.93C122.407 266.457 103.653 266.122 95.2806 267.327Z" fill="white"/>
<path fill-rule="evenodd" clip-rule="evenodd" d="M1115.92 270.341C1115.11 270.676 1114.18 271.48 1113.84 272.15C1113.51 272.82 1093.41 322.452 1069.23 382.399C1021.88 499.747 1024.02 493.853 1028.04 495.862C1030.12 496.934 1061.66 497.068 1064.68 495.996C1066.15 495.528 1067.02 494.523 1067.83 492.513C1071.64 483.002 1091.74 430.959 1095.02 422.051C1097.16 416.156 1106.27 392.58 1115.18 369.739L1131.39 328.078L1143.92 361.367L1156.44 394.589L1136.95 394.924C1126.17 395.125 1116.86 395.527 1116.25 395.795C1115.65 396.129 1114.64 397.603 1114.11 399.144C1112.1 404.569 1105 427.61 1105 428.682C1105 429.284 1105.6 430.356 1106.34 431.093C1107.61 432.366 1108.55 432.433 1139.43 432.433H1171.24L1173.19 437.59C1184.97 468.066 1195.62 494.523 1196.43 495.394C1197.3 496.197 1200.31 496.465 1214.04 496.599C1223.15 496.733 1231.52 496.599 1232.73 496.398C1235.41 495.929 1236.95 494.456 1236.95 492.313C1236.95 490.236 1151.55 272.418 1150.21 271.011C1149.34 270.207 1146.53 270.006 1133.27 269.873C1124.56 269.806 1116.72 270.006 1115.92 270.341Z" fill="white"/>
<path fill-rule="evenodd" clip-rule="evenodd" d="M235.537 272.284C233.93 273.556 233.93 273.556 233.93 289.431C233.93 305.305 233.93 305.305 235.537 306.577C237.011 307.783 238.618 307.85 271.505 307.85H305.933V401.287C305.933 493.853 305.933 494.724 307.273 496.063C308.545 497.336 309.483 497.403 325.625 497.403C341.365 497.403 342.772 497.336 344.178 496.13L345.786 494.858L345.987 401.354L346.121 307.85H380.214C412.766 307.85 414.373 307.783 415.847 306.577C417.454 305.305 417.454 305.305 417.454 289.431C417.454 273.556 417.454 273.556 415.847 272.284C414.306 271.078 411.962 271.011 325.692 271.011C239.422 271.011 237.078 271.078 235.537 272.284Z" fill="white"/>
<path fill-rule="evenodd" clip-rule="evenodd" d="M427.168 272.351C425.895 273.623 425.828 274.561 425.828 289.431C425.828 304.3 425.895 305.238 427.168 306.51C428.44 307.783 429.378 307.85 463.002 307.85H497.497L497.631 401.354L497.831 494.858L499.439 496.13C500.846 497.336 502.252 497.403 517.992 497.403C534.134 497.403 535.072 497.336 536.345 496.063C537.684 494.724 537.684 493.853 537.684 401.287V307.85H572.112C604.999 307.85 606.607 307.783 608.08 306.577C609.688 305.305 609.688 305.305 609.688 289.431C609.688 273.556 609.688 273.556 608.08 272.284C606.54 271.078 604.128 271.011 517.524 271.011C429.378 271.011 428.507 271.011 427.168 272.351Z" fill="white"/>
<path fill-rule="evenodd" clip-rule="evenodd" d="M667.489 271.815C666.35 272.686 578.54 489.633 578.004 492.848C577.803 493.987 578.205 495.059 579.142 495.996C580.482 497.336 581.152 497.403 598.901 497.403C615.378 497.403 617.388 497.269 618.593 496.264C619.866 495.193 638.286 448.441 649.002 419.371C653.892 406.042 683.832 329.217 684.1 329.418C684.301 329.686 709.15 395.661 709.15 395.996C709.15 396.129 700.309 396.263 689.458 396.263C671.708 396.263 669.632 396.397 668.426 397.402C666.618 398.943 657.375 427.811 657.978 430.155C658.848 433.437 658.446 433.437 692.271 433.772L724.02 434.107L736.009 464.583C743.913 484.811 748.4 495.461 749.405 496.197C750.678 497.269 752.687 497.403 768.762 497.403C785.105 497.403 786.847 497.269 788.186 496.197C789.057 495.528 789.66 494.255 789.66 493.317C789.593 490.973 703.926 272.82 702.653 271.815C701.782 271.212 697.228 271.011 685.037 271.011C672.847 271.011 668.292 271.212 667.489 271.815Z" fill="white"/>
<path fill-rule="evenodd" clip-rule="evenodd" d="M761.661 272.753C760.455 273.891 760.054 274.896 760.322 275.901C760.522 276.704 778.875 326.47 801.179 386.551C825.493 451.991 842.171 496.063 842.908 496.532C844.515 497.738 877.201 497.738 878.809 496.532C879.747 495.862 959.988 281.527 961.395 275.901C961.663 274.896 961.261 273.891 960.055 272.753L958.381 271.011H940.229C923.685 271.011 922.078 271.145 921.006 272.217C920.336 272.887 906.672 309.926 890.664 354.535C874.656 399.211 861.327 435.514 861.059 435.246C860.791 434.978 847.462 398.474 831.387 354.066C812.164 301.085 801.648 272.954 800.777 272.15C799.572 271.145 797.629 271.011 781.353 271.011H763.336L761.661 272.753Z" fill="white"/>
<path fill-rule="evenodd" clip-rule="evenodd" d="M974.322 272.284L972.715 273.556V384.207V494.858L974.322 496.13C975.729 497.336 977.135 497.403 992.876 497.403C1009.02 497.403 1009.96 497.336 1011.23 496.063C1012.57 494.724 1012.57 493.853 1012.57 384.207C1012.57 274.561 1012.57 273.69 1011.23 272.351C1009.96 271.078 1009.02 271.011 992.876 271.011C977.135 271.011 975.729 271.078 974.322 272.284Z" fill="white"/>
<path fill-rule="evenodd" clip-rule="evenodd" d="M1247.6 272.284L1245.99 273.556V384.207V494.858L1247.6 496.13C1249.01 497.336 1250.41 497.403 1266.02 497.403C1279.55 497.403 1283.17 497.202 1284.24 496.465C1285.51 495.528 1285.51 493.786 1285.85 420.309L1286.18 345.158L1338.02 420.443C1366.49 461.837 1390.27 496.13 1390.87 496.599C1391.67 497.202 1396.36 497.403 1408.89 497.403C1424.96 497.403 1425.9 497.336 1427.17 496.063C1428.51 494.724 1428.51 493.853 1428.51 384.207C1428.51 274.561 1428.51 273.69 1427.17 272.351C1425.9 271.078 1424.96 271.011 1408.82 271.011C1393.08 271.011 1391.67 271.078 1390.27 272.284L1388.66 273.556L1388.32 348.105L1387.99 422.653L1337.08 348.641C1309.09 307.984 1285.38 273.891 1284.37 272.82L1282.63 271.011H1265.89C1250.41 271.011 1249.01 271.078 1247.6 272.284Z" fill="white"/>
<path fill-rule="evenodd" clip-rule="evenodd" d="M1470.04 272.351C1468.7 273.69 1468.7 274.561 1468.7 384.207C1468.7 493.853 1468.7 494.724 1470.04 496.063C1471.32 497.336 1472.25 497.403 1488.4 497.403C1504.14 497.403 1505.54 497.336 1506.95 496.13L1508.56 494.858V384.207V273.556L1506.95 272.284C1505.54 271.078 1504.14 271.011 1488.4 271.011C1472.25 271.011 1471.32 271.078 1470.04 272.351Z" fill="white"/>
</svg>
