<svg width="4494" height="501" viewBox="0 0 4494 501" fill="none" xmlns="http://www.w3.org/2000/svg">
<path d="M140.769 7.51075C106.084 26.6549 87.8406 63.5918 93.9217 102.781C98.4262 131.835 117.57 157.286 144.597 170.123C158.787 176.88 161.715 177.331 183.561 177.331C205.408 177.331 208.336 176.88 221.85 170.349C240.543 161.565 256.76 145.349 265.543 126.655C272.075 113.141 272.525 110.213 272.525 87.2405C272.525 65.1684 271.85 61.1144 266.444 49.6279C258.561 32.736 243.021 16.2945 226.579 7.51075C213.516 0.75399 212.615 0.528765 183.336 0.528765C154.057 0.528765 152.705 0.75399 140.769 7.51075Z" fill="white"/>
<path d="M330.63 6.1591C311.937 15.6186 299.549 28.2312 290.09 47.3753C281.982 63.8168 281.531 65.3933 281.531 87.015C281.756 116.069 286.937 130.258 304.504 149.177C340.54 188.141 402.477 188.592 438.063 150.078C479.054 105.709 466.216 32.9609 412.612 6.60955C400.901 0.978922 398.198 0.528472 371.171 0.528472C344.594 0.528472 341.216 0.978922 330.63 6.1591Z" fill="white"/>
<path d="M516.891 7.06028C509.909 10.6639 499.548 18.772 493.692 25.0783C450.674 71.0243 464.188 143.322 520.945 170.123C534.909 176.88 537.837 177.331 559.683 177.331C581.756 177.331 584.458 176.88 597.972 170.123C616.665 160.889 632.206 145.349 641.44 126.655C648.197 112.916 648.647 110.664 648.647 87.2405C648.647 64.4927 647.972 61.3396 641.891 48.9522C633.783 32.0603 615.314 13.3666 599.774 6.15938C588.963 1.20443 585.134 0.528753 558.557 0.753978C530.855 0.753978 528.602 1.20443 516.891 7.06028Z" fill="white"/>
<path d="M704.503 7.28537C687.386 15.8439 674.098 30.0331 664.863 49.6277C658.107 63.5917 657.656 66.5196 657.656 88.3664C657.656 110.664 658.107 113.141 664.863 126.88C673.872 145.123 692.116 162.916 709.909 171.249C736.71 183.411 774.773 179.808 799.548 162.691C845.719 130.934 851.35 62.916 811.035 23.5016C804.728 17.1953 794.368 9.53762 788.062 6.38447C777.251 0.979064 774.098 0.528614 747.296 0.528614C719.368 0.528614 717.566 0.753839 704.503 7.28537Z" fill="white"/>
<path d="M1022.3 81.1597C1020.95 82.0606 1017.79 86.3398 1015.54 90.6191C1011.49 98.0515 1011.26 105.709 1011.26 249.403C1011.26 392.196 1011.49 400.979 1015.54 409.763C1022.97 426.205 1032.66 424.403 1038.29 405.484C1043.47 388.142 1043.47 112.916 1038.29 95.5741C1036.26 89.0425 1032.88 82.9615 1030.41 81.6101C1025.45 78.9074 1025.45 78.9074 1022.3 81.1597Z" fill="white"/>
<path d="M1257.88 83.8623C1220.5 89.7181 1180.63 112.916 1157.66 141.97C1145.27 157.286 1130.86 185.664 1125.9 204.358C1120.27 225.529 1119.15 268.997 1123.88 290.394C1131.31 323.952 1147.52 352.106 1173.88 376.655C1204.96 405.709 1232.21 416.97 1275 418.772C1308.78 420.349 1328.83 416.295 1355.41 403.006C1380.86 390.394 1410.59 360.889 1423.88 334.763C1439.19 305.259 1443.69 286.34 1443.47 249.403C1443.47 212.691 1440.32 198.051 1426.13 170.574C1412.61 144.223 1381.08 112.916 1354.73 100.078C1344.15 94.8983 1329.73 89.2677 1322.3 87.2406C1305.41 82.9614 1273.65 81.3848 1257.88 83.8623ZM1299.55 166.069C1325.23 172.826 1347.97 192.646 1357.43 216.52C1364.42 234.313 1364.42 268.772 1357.43 286.565C1350.68 303.457 1335.59 320.124 1318.24 329.583C1304.96 336.79 1302.7 337.241 1282.66 337.241C1263.51 337.241 1259.91 336.565 1249.1 330.934C1232.88 322.376 1216.22 305.033 1208.78 289.268C1203.38 277.781 1202.7 273.727 1202.7 251.655C1202.7 229.133 1203.38 225.529 1209.24 212.916C1219.6 190.619 1243.47 170.574 1266.22 165.169C1279.06 162.241 1284.91 162.241 1299.55 166.069Z" fill="white"/>
<path d="M1544.6 84.9884C1526.81 89.9434 1515.32 96.4749 1501.58 109.313C1479.73 130.033 1471.63 149.628 1471.63 180.709C1471.63 203.907 1476.36 220.349 1487.17 236.79C1501.58 258.637 1528.61 271.7 1591.45 287.691C1600.68 289.943 1609.46 293.997 1614.87 298.277C1622.75 304.808 1623.2 305.934 1622.08 315.169C1620.05 334.088 1608.56 342.871 1585.82 343.097C1570.95 343.322 1564.19 339.943 1544.6 322.376C1514.19 295.124 1502.48 293.997 1480.64 315.619C1466.67 329.583 1463.74 336.115 1466 348.277C1469.37 366.52 1499.78 396.475 1526.58 407.961C1556.54 420.799 1596.4 422.376 1627.71 411.79C1662.62 400.079 1681.09 384.988 1694.37 356.835C1702.71 339.718 1702.71 339.268 1702.71 310.214C1702.71 282.961 1702.26 280.033 1696.4 267.421C1688.74 251.205 1677.03 238.592 1663.29 231.385C1649.78 224.628 1620.05 215.394 1600.91 212.015C1566.67 206.16 1551.81 196.475 1551.81 180.259C1551.81 172.601 1553.16 170.124 1559.46 164.718C1574.1 152.556 1596.4 153.457 1612.17 166.52C1637.39 187.691 1656.54 185.214 1675.23 157.961C1691.22 134.763 1688.07 120.574 1662.84 103.457C1641.9 88.8172 1621.85 83.4118 1586.72 82.5109C1564.64 81.8353 1553.16 82.5109 1544.6 84.9884Z" fill="white"/>
<path d="M3411.04 83.8622C3373.88 89.718 3333.56 112.916 3310.82 141.97C3298.65 157.06 3284.46 185.214 3279.06 204.358C3273.43 225.304 3272.3 268.772 3277.03 290.394C3284.46 323.952 3301.58 353.232 3328.16 377.781C3358.34 405.709 3386.04 416.97 3428.16 418.772C3479.51 421.024 3512.39 408.412 3547.53 373.502C3564.87 356.159 3569.6 349.628 3578.38 331.61C3591.9 304.132 3595.73 289.042 3597.3 258.187C3599.33 218.547 3591.9 189.042 3572.08 158.187C3549.78 123.727 3513.74 97.1505 3475.45 87.4658C3458.79 82.9613 3427.03 81.3847 3411.04 83.8622ZM3466 170.349C3497.75 184.988 3516.9 215.619 3516.9 251.655C3516.9 287.015 3500.45 314.493 3469.15 330.934C3458.56 336.565 3454.96 337.241 3435.82 337.241C3416.67 337.241 3413.07 336.565 3402.26 330.934C3386.04 322.376 3370.5 306.385 3362.39 289.943C3356.31 277.556 3355.86 274.403 3355.86 251.655C3355.86 229.132 3356.54 225.529 3362.39 212.916C3372.53 190.619 3396.18 170.799 3419.37 164.943C3431.99 161.79 3452.93 164.268 3466 170.349Z" fill="white"/>
<path d="M4008.56 84.9886C3980.18 92.6463 3955.63 112.241 3943.7 136.565C3927.03 170.799 3932.66 218.547 3956.98 245.349C3970.27 260.214 4003.15 275.079 4043.47 284.538C4063.29 289.043 4077.03 295.124 4082.21 301.43C4086.71 306.61 4086.26 320.574 4081.53 328.007C4074.78 337.917 4064.64 342.872 4050 342.872C4033.33 342.872 4023.65 337.917 4003.61 319.448C3985.36 302.781 3977.48 298.953 3965.99 301.205C3956.98 302.781 3937.61 319.223 3932.21 329.808C3924.33 344.899 3930.18 360.439 3951.13 380.935C3975.68 405.259 4001.58 416.295 4038.29 418.547C4088.97 421.926 4138.97 397.151 4156.31 359.989C4171.4 328.232 4171.62 290.844 4157.21 262.016C4144.6 237.466 4122.07 224.853 4068.7 213.142C4037.61 206.385 4026.35 201.881 4019.37 192.872C4013.06 184.763 4013.51 175.754 4020.27 167.421C4031.76 153.908 4054.51 152.331 4071.17 164.043C4103.83 187.241 4118.47 186.115 4137.84 158.863C4153.38 137.016 4152.25 126.205 4132.88 109.088C4112.16 90.8445 4081.76 81.6103 4044.15 81.8355C4031.08 81.8355 4014.87 83.4121 4008.56 84.9886Z" fill="white"/>
<path d="M1754.5 88.1412C1743.02 91.0691 1737.39 95.1232 1734.01 103.006C1729.73 113.366 1729.5 384.538 1733.78 396.925C1738.06 409.312 1748.42 413.817 1771.4 413.817C1792.34 413.592 1802.7 409.988 1807.88 400.754C1810.13 397.15 1811.03 374.402 1811.94 312.916L1813.06 230.258L1845.27 274.177C1881.98 324.177 1888.51 330.033 1907.21 330.033C1928.15 330.033 1932.21 326.429 1966.89 278.682C1981.31 258.862 1995.27 239.943 1997.97 236.565L2002.93 230.258L2003.83 313.141C2004.5 405.934 2004.5 405.033 2020.72 410.889C2033.78 415.393 2064.19 414.718 2071.85 409.763C2084.68 401.43 2084.46 402.781 2084.46 248.952C2084.46 96.925 2084.68 100.979 2072.52 91.97C2067.34 88.1412 2063.06 87.4655 2045.49 87.4655C2030.18 87.4655 2022.97 88.3664 2017.57 91.2943C2013.06 93.5466 1996.62 113.141 1973.87 142.871C1953.6 169.222 1930.63 199.628 1922.52 210.213L1907.66 229.357L1856.98 162.916C1826.58 123.051 1803.38 94.8979 1799.1 92.1952C1791.22 87.6907 1765.31 85.2133 1754.5 88.1412Z" fill="white"/>
<path d="M2253.83 90.8441C2248.65 93.5468 2242.34 98.2765 2240.09 101.655C2231.98 113.141 2108.78 371.024 2107.66 378.907C2106.08 390.844 2113.96 400.979 2132.66 410.439C2151.13 419.673 2163.96 420.799 2173.87 413.817C2177.93 410.664 2185.59 398.277 2195.95 377.105L2211.49 345.123H2271.85H2332.21L2349.1 378.907C2367.79 416.295 2372.52 421.024 2388.74 418.772C2400.9 417.195 2420.04 407.961 2428.6 399.403C2442.79 385.213 2443.47 387.691 2371.4 238.367C2336.04 165.168 2304.28 102.331 2301.13 98.727C2288.74 85.6639 2270.72 82.5108 2253.83 90.8441ZM2297.75 276.88C2297.07 277.331 2285.13 277.331 2270.95 277.105L2245.27 276.43L2258.56 248.277L2272.07 220.123L2285.36 248.051C2292.57 263.367 2298.2 276.43 2297.75 276.88Z" fill="white"/>
<path d="M2484.24 87.6908C2473.2 89.9431 2466.89 93.9971 2463.29 100.529C2459.69 106.835 2459.46 120.123 2459.46 250.529C2459.46 382.736 2459.69 393.997 2463.51 400.754C2468.92 410.664 2474.1 412.916 2494.15 414.267C2515.77 415.619 2527.25 412.015 2534.24 401.655C2539.42 393.997 2539.42 393.547 2539.42 313.141V232.06L2544.6 238.592C2547.52 241.97 2577.93 282.06 2612.39 327.556C2683.33 421.7 2677.48 416.52 2711.26 414.267C2731.31 412.916 2738.74 409.087 2743.47 398.051C2747.75 387.691 2747.97 116.52 2743.7 104.132C2740.09 93.9971 2730.18 88.5917 2712.61 87.0151C2693.47 85.4385 2677.7 89.7178 2671.4 98.0512C2666.89 104.132 2666.67 107.285 2665.99 187.691L2665.32 270.799L2660.14 264.718C2657.21 261.114 2629.73 224.403 2599.1 182.961C2568.47 141.52 2539.87 103.682 2535.36 99.1773C2525 88.3665 2503.38 83.4115 2484.24 87.6908Z" fill="white"/>
<path d="M2914.86 88.1412C2910.13 89.2673 2903.38 92.6457 2900.22 96.0241L2894.14 101.88L2893.47 247.826L2893.02 393.772L2898.2 401.655C2902.02 407.511 2905.85 409.988 2914.41 412.24C2928.15 415.844 2952.02 414.042 2960.81 408.862C2972.29 402.105 2972.52 399.402 2973.87 312.466L2975.22 231.384L3007.43 275.529C3026.12 301.204 3042.34 321.249 3046.62 323.502C3061.93 332.736 3079.95 332.285 3093.92 322.375C3097.07 319.898 3114.41 298.051 3132.2 273.502L3164.41 229.132L3165.54 313.817C3166.66 405.934 3166.21 402.556 3179.95 409.988C3188.96 414.718 3219.82 415.168 3230.4 410.664C3245.94 404.132 3245.49 409.087 3246.17 253.682C3246.84 98.5016 3246.84 99.8529 3233.11 91.97C3226.8 88.1412 3221.39 87.2403 3206.08 87.2403C3183.11 87.4655 3174.32 91.0691 3163.96 104.808C3123.65 158.637 3070.49 226.88 3068.92 226.88C3067.79 226.88 3043.92 196.925 3015.99 160.213C2975.22 106.61 2963.74 92.8709 2957.88 90.8439C2947.97 87.2403 2925.45 85.889 2914.86 88.1412Z" fill="white"/>
<path d="M3645.27 87.4655C3635.59 91.0691 3631.76 94.2222 3628.38 101.655C3625 109.087 3624.78 119.898 3625.45 202.33L3626.13 294.447L3633.56 315.844C3650.45 364.492 3681.54 398.276 3722.53 412.691C3741.9 419.673 3782.66 421.474 3802.93 416.294C3864.42 400.979 3906.54 347.826 3913.74 277.33C3914.87 265.168 3915.54 221.925 3915.09 181.384C3914.42 100.303 3913.74 97.1502 3900.91 90.6186C3892.12 86.3394 3865.09 84.988 3852.93 88.3664C3845.95 90.1682 3842.12 92.8709 3838.97 98.0511C3834.69 104.808 3834.46 109.988 3834.46 185.213C3834.46 245.123 3833.56 268.997 3831.31 280.033C3823.2 318.321 3802.03 338.366 3769.82 338.366C3748.88 338.366 3732.66 330.033 3721.18 313.141C3708.11 293.772 3707.66 288.817 3706.09 193.096C3704.73 100.529 3704.51 97.1502 3694.15 90.6186C3689.19 87.4655 3651.81 84.988 3645.27 87.4655Z" fill="white"/>
<path d="M4312.84 90.3939C4307.88 92.6461 4301.8 97.1506 4299.32 100.304C4296.85 103.232 4265.99 165.169 4231.08 237.916C4187.61 327.781 4166.89 372.826 4166.21 379.583C4165.31 387.691 4165.99 390.394 4171.17 396.475C4179.95 406.835 4202.48 417.871 4215.09 418.097C4231.76 418.547 4236.03 414.043 4253.83 377.556L4269.82 345.124H4330.4H4390.76L4406.3 377.781C4426.8 420.799 4433.56 425.304 4461.94 414.718C4469.37 411.79 4478.6 405.934 4484.68 400.079C4500.9 384.538 4502.48 388.817 4429.5 238.142C4394.59 166.295 4363.51 104.133 4360.13 99.8533C4349.32 86.1146 4330.4 82.511 4312.84 90.3939ZM4344.14 249.628C4351.35 264.043 4356.76 276.205 4356.3 276.655C4355.85 277.331 4343.47 277.331 4329.05 277.106L4302.7 276.43L4315.76 249.853C4322.75 235.439 4329.05 223.502 4329.95 223.502C4330.63 223.502 4336.94 235.214 4344.14 249.628Z" fill="white"/>
<path d="M57.4324 165.168C33.1081 174.628 17.5676 189.492 6.08108 214.042C0.675676 225.303 0 229.583 0 250.528C0 272.375 0.45045 275.303 7.20721 289.492C15.991 307.961 31.0811 323.276 49.7748 332.736C62.1622 339.042 64.6396 339.492 88.964 339.492C113.739 339.492 115.541 339.042 129.73 332.285C164.64 314.943 185.811 275.303 179.505 238.141C174.324 206.835 156.532 182.06 129.955 168.997C116.667 162.465 112.838 161.565 92.5676 161.114C73.6486 160.438 67.7928 161.339 57.4324 165.168Z" fill="white"/>
<path d="M244.143 165.619C220.945 175.303 205.404 190.168 194.819 212.691C173.873 257.06 194.143 312.24 239.413 333.411C250.9 338.817 254.954 339.492 277.026 339.492C299.999 339.492 302.927 339.042 316.44 332.51C335.134 323.727 350.224 308.637 359.683 289.267C366.665 275.303 367.116 272.826 367.116 250.528C367.116 228.682 366.665 225.754 359.909 211.565C351.125 193.096 335.81 177.555 317.341 168.321C305.629 162.465 301.125 161.79 280.404 161.114C259.683 160.438 255.179 160.889 244.143 165.619Z" fill="white"/>
<path d="M434.013 164.718C408.337 174.402 388.968 194.222 379.734 220.348C375.229 232.51 374.554 238.141 375.455 255.709C376.355 272.826 377.482 278.682 383.112 289.943C391.446 307.285 408.563 324.402 425.68 332.961C438.292 339.042 440.995 339.492 465.094 339.492C489.869 339.492 491.896 339.042 505.86 332.285C550.905 309.988 569.373 253.231 546.175 207.51C538.968 193.546 518.923 174.628 504.058 167.646C486.265 159.537 452.031 158.186 434.013 164.718Z" fill="white"/>
<path d="M622.302 164.718C606.086 171.25 597.077 177.556 584.69 190.845C544.6 234.763 560.14 307.736 614.87 333.187C633.564 341.971 665.095 343.322 683.789 336.34C732.888 317.872 756.537 265.169 737.618 216.07C731.086 198.727 711.942 178.007 693.924 168.772C681.537 162.466 677.933 161.79 656.537 161.115C637.392 160.439 630.861 161.115 622.302 164.718Z" fill="white"/>
<path d="M812.615 163.592C761.263 180.258 736.038 240.168 759.011 290.619C765.993 305.934 784.912 324.628 801.804 332.961C814.417 339.042 817.119 339.492 841.218 339.492C865.318 339.492 868.02 339.042 880.633 332.961C897.975 324.402 915.092 307.285 923.651 289.943C929.732 277.33 930.182 274.628 930.182 250.528C930.182 226.429 929.732 223.727 923.651 211.114C915.092 193.772 897.75 176.655 880.633 168.321C868.921 162.691 863.966 161.79 844.597 161.114C829.957 160.664 818.696 161.564 812.615 163.592Z" fill="white"/>
<path d="M157.66 325.529C122.3 337.241 98.6513 364.718 93.6963 399.628C88.2909 438.367 106.759 475.529 140.543 493.547C153.381 500.304 154.507 500.529 182.886 500.529C210.813 500.529 212.615 500.304 225.678 493.772C242.345 485.439 258.336 468.772 266.444 451.43C274.327 434.313 276.129 403.232 270.273 385.439C261.714 359.763 245.498 341.52 220.273 330.033C209.687 325.078 203.381 323.727 186.94 323.277C174.327 322.826 163.291 323.727 157.66 325.529Z" fill="white"/>
<path d="M345.27 325.979C329.504 330.259 316.216 338.817 303.378 353.006C286.937 370.799 281.756 385.664 281.531 413.817C281.531 434.538 282.207 437.466 288.738 451.43C297.297 469.673 313.063 486.114 329.729 494.448C341.216 500.078 344.144 500.529 371.171 500.529C397.297 500.529 401.126 500.078 411.937 494.898C446.621 478.457 467.567 437.466 461.036 398.952C451.576 343.997 399.099 311.114 345.27 325.979Z" fill="white"/>
<path d="M531.526 326.43C505.625 335.889 488.508 350.529 477.472 373.277C465.084 398.277 465.31 429.358 477.922 453.907C485.805 469.673 503.147 487.466 517.787 494.448C529.274 500.078 532.202 500.529 559.003 500.529C584.679 500.529 589.184 499.853 599.319 495.123C632.427 479.583 651.346 446.25 649.319 406.835C648.643 391.97 647.066 385.664 641.211 373.952C631.976 355.033 616.211 339.493 597.967 330.709C579.274 321.925 549.544 320.123 531.526 326.43Z" fill="white"/>
</svg>
