<svg width="6312" height="716" viewBox="0 0 6312 716" fill="none" xmlns="http://www.w3.org/2000/svg">
<path d="M346.006 110.223H779.718C787.746 110.223 795.207 112.24 802.093 116.247C808.977 120.265 814.57 125.577 818.873 132.167C823.175 138.768 825.893 146.231 827.049 154.54C828.191 162.863 827.33 171.321 824.466 179.927L808.117 226.395H306.422L346.006 110.223ZM791.766 273.725L779.718 309.868C776.839 318.473 771.973 326.945 765.089 335.253C758.203 343.576 750.311 351.039 741.423 357.628C732.523 364.229 723.205 369.541 713.457 373.548C703.695 377.568 694.807 379.571 686.781 379.571H651.498L779.718 715.183H651.498L514.671 379.571H376.986L321.051 543.075H197.133L290.071 273.725H791.766Z" fill="white"/>
<path d="M1390.69 226.395H1084.34L1178.14 141.203C1195.35 129.733 1216.28 121.706 1240.96 117.107C1265.62 112.522 1289.43 110.223 1312.38 110.223C1330.16 110.223 1345.65 111.809 1358.85 114.955C1372.04 118.115 1382.52 123.426 1390.26 130.877C1398 138.338 1402.59 148.382 1404.03 160.995C1405.46 173.621 1403.02 189.393 1396.72 208.325L1390.69 226.395ZM1223.75 367.523L1255.59 273.726H1374.34L1281.4 543.074H1163.51L1188.46 471.649H975.912L894.16 543.074H738.402L1032.71 273.726H1195.35L1087.78 367.523H1223.75Z" fill="white"/>
<path d="M1510.29 179.926C1513.16 171.321 1518.04 162.864 1524.92 154.54C1531.81 146.232 1539.69 138.768 1548.59 132.166C1557.48 125.577 1566.79 120.265 1576.56 116.246C1586.3 112.24 1595.19 110.223 1603.23 110.223H2060.18L2020.59 226.396H1493.94L1510.29 179.926ZM1510.29 379.57C1502.25 379.57 1494.8 377.568 1487.92 373.548C1481.04 369.541 1475.44 364.229 1471.14 357.628C1466.84 351.038 1464.11 343.576 1462.96 335.254C1461.81 326.945 1462.67 318.473 1465.55 309.868L1477.59 273.725H1935.4C1943.43 273.725 1950.89 275.741 1957.78 279.749C1964.66 283.769 1970.25 289.08 1974.56 295.669C1978.86 302.27 1981.57 309.733 1982.73 318.042C1983.87 326.366 1983.01 334.822 1980.15 343.429L1935.4 473.37C1932.52 481.977 1927.66 490.446 1920.77 498.757C1913.89 507.08 1905.99 514.541 1897.11 521.13C1888.21 527.732 1878.89 533.044 1869.14 537.05C1859.38 541.07 1850.49 543.074 1842.46 543.074H1336.46L1376.05 426.901H1826.97L1843.32 379.57H1510.29Z" fill="white"/>
<path d="M2075.66 226.395L2115.25 110.223H2603.17L2590.27 148.087C2586.82 156.691 2581.08 166.735 2573.05 178.206C2565.01 189.687 2555.85 198.293 2545.52 204.022L2513.68 226.395H2075.66ZM2493.89 426.901L2454.3 543.074H1966.38L1981 501.769C1983.29 494.885 1988.02 486.279 1995.2 475.953C2002.37 465.625 2010.54 457.599 2019.73 451.857L2268.42 273.726H2448.28L2234.86 426.901H2493.89Z" fill="white"/>
<path d="M2707.3 543.074L2800.23 273.725H2924.15L2831.21 543.074H2707.3ZM2658.25 110.222H3178.01L3138.43 226.396H2618.66L2658.25 110.222Z" fill="white"/>
<path d="M3722.73 116.246C3729.62 120.266 3735.21 125.578 3739.52 132.166C3743.82 138.769 3746.53 146.232 3747.69 154.541C3748.83 162.864 3747.97 171.321 3745.11 179.926L3728.76 226.396H3192.64L3208.99 179.926C3211.86 171.321 3216.74 162.864 3223.62 154.541C3230.51 146.232 3238.39 138.769 3247.29 132.166C3256.17 125.578 3265.49 120.266 3275.25 116.246C3285 112.24 3293.89 110.222 3301.93 110.222H3700.36C3708.39 110.222 3715.85 112.24 3722.73 116.246ZM3629.8 498.757C3622.91 507.08 3615.02 514.542 3606.13 521.13C3597.23 527.732 3587.91 533.045 3578.16 537.052C3568.4 541.07 3559.51 543.074 3551.49 543.074H3153.06C3145.02 543.074 3137.57 541.07 3130.68 537.052C3123.8 533.045 3118.21 527.732 3113.9 521.13C3109.6 514.542 3106.87 507.08 3105.73 498.757C3104.57 490.446 3105.43 481.977 3108.31 473.37L3176.29 273.725H3301.07L3247.72 426.901H3536L3589.35 273.725H3712.41L3644.43 473.37C3641.55 481.977 3636.68 490.446 3629.8 498.757Z" fill="white"/>
<path d="M4313.92 116.246C4320.81 120.266 4326.4 125.578 4330.7 132.166C4335.01 138.769 4337.72 146.232 4338.88 154.541C4340.02 162.864 4339.16 171.321 4336.3 179.926L4319.95 226.396H3783.83L3800.18 179.926C3803.04 171.321 3807.92 162.864 3814.81 154.541C3821.69 146.232 3829.57 138.769 3838.47 132.166C3847.36 125.578 3856.68 120.266 3866.44 116.246C3876.19 112.24 3885.08 110.222 3893.12 110.222H4291.55C4299.57 110.222 4307.04 112.24 4313.92 116.246ZM4220.98 498.757C4214.1 507.08 4206.21 514.542 4197.32 521.13C4188.42 527.732 4179.1 533.045 4169.35 537.052C4159.59 541.07 4150.7 543.074 4142.67 543.074H3744.25C3736.2 543.074 3728.75 541.07 3721.87 537.052C3714.99 533.045 3709.39 527.732 3705.09 521.13C3700.79 514.542 3698.06 507.08 3696.91 498.757C3695.76 490.446 3696.62 481.977 3699.5 473.37L3767.48 273.725H3892.26L3838.9 426.901H4127.18L4180.54 273.725H4303.6L4235.61 473.37C4232.73 481.977 4227.87 490.446 4220.98 498.757Z" fill="white"/>
<path d="M4464.51 543.074L4557.45 273.725H4681.37L4588.43 543.074H4464.51ZM4415.46 110.222H4935.23L4895.64 226.396H4375.88L4415.46 110.222Z" fill="white"/>
<path d="M5105.62 273.725H5464.46L5452.41 309.868C5449.53 318.473 5444.67 326.945 5437.78 335.253C5430.9 343.576 5423.01 351.039 5414.12 357.628C5405.22 364.229 5395.9 369.541 5386.15 373.548C5376.39 377.568 5367.5 379.571 5359.47 379.571H5068.61L5105.62 273.725ZM5480.81 226.395H4949.86L4966.21 179.927C4969.07 171.321 4973.95 162.864 4980.84 154.54C4987.72 146.231 4995.6 138.768 5004.5 132.167C5013.39 125.577 5022.71 120.265 5032.47 116.247C5042.22 112.24 5051.1 110.223 5059.14 110.223H5452.41C5460.44 110.223 5467.9 112.24 5474.79 116.247C5481.67 120.265 5487.26 125.577 5491.57 132.167C5495.87 138.768 5498.59 146.231 5499.74 154.54C5500.88 162.864 5500.02 171.321 5497.16 179.927L5480.81 226.395ZM4887.9 537.051C4881.01 533.044 4875.42 527.732 4871.12 521.131C4866.82 514.541 4864.09 507.08 4862.94 498.756C4861.79 490.447 4862.65 481.976 4865.53 473.369L4933.51 273.725H5058.28L5004.93 426.901H5411.97L5372.38 543.075H4910.27C4902.23 543.075 4894.78 541.071 4887.9 537.051Z" fill="white"/>
<path d="M6072.86 226.395H5948.08L5988.53 110.223H6112.45L6072.86 226.395ZM5803.51 474.231C5765.65 431.205 5712.86 364.378 5645.17 273.726H5817.28C5828.75 289.215 5840.94 305.861 5853.85 323.637C5866.76 341.425 5880.67 360.357 5895.59 380.433L5931.73 273.726H6056.51L5982.5 488.861C5980.21 495.745 5976.05 502.346 5970.03 508.653C5964 514.971 5956.97 520.701 5948.94 525.863C5940.9 531.026 5932.01 535.194 5922.27 538.341C5912.5 541.502 5903.04 543.074 5893.87 543.074H5884.4C5882.11 543.074 5880.67 542.791 5880.1 542.214C5866.9 539.927 5841.38 517.258 5803.51 474.231ZM5704.55 142.062C5723.48 159.851 5748.44 187.967 5779.42 226.395H5536.75L5558.26 164.437C5560.54 158.13 5564.71 151.675 5570.74 145.075C5576.76 138.486 5583.78 132.597 5591.82 127.434C5599.85 122.27 5608.6 118.115 5618.07 114.955C5627.53 111.809 5637.13 110.223 5646.89 110.223H5655.5C5658.36 110.223 5660.08 110.518 5660.66 111.083C5670.99 113.961 5685.62 124.287 5704.55 142.062ZM5427.46 543.074L5520.39 273.726H5643.45L5551.37 543.074H5427.46Z" fill="white"/>
<path d="M528.147 664.974H11.8242L24.7322 621.946H528.147V664.974Z" fill="white"/>
<path d="M528.147 664.974H11.8242L24.7322 621.946H528.147V664.974Z" stroke="white" stroke-width="6.66667"/>
<path d="M177.911 283.748L45.6828 663.66L4.99609 662.563L137.228 282.652L177.911 283.748Z" fill="white"/>
<path d="M177.911 283.748L45.6828 663.66L4.99609 662.563L137.228 282.652L177.911 283.748Z" stroke="white" stroke-width="6.66667"/>
<path d="M6304.96 12.6784L6227.7 236.752L6182.71 235.653L6264.27 11.581L6304.96 12.6784Z" fill="white"/>
<path d="M6304.96 12.6784L6227.7 236.752L6182.71 235.653L6264.27 11.581L6304.96 12.6784Z" stroke="white" stroke-width="6.66667"/>
<path d="M2428.51 664.974H843.68V621.946H2428.51V664.974Z" fill="white" stroke="white" stroke-width="6.66667"/>
<path d="M6293.76 46.8191H2665.16V3.79109H6306.67L6293.76 46.8191Z" fill="white"/>
<path d="M6293.76 46.8191H2665.16V3.79109H6306.67L6293.76 46.8191Z" stroke="white" stroke-width="6.66667"/>
</svg>
