<svg width="1672" height="500" viewBox="0 0 1672 500" fill="none" xmlns="http://www.w3.org/2000/svg">
<path fill-rule="evenodd" clip-rule="evenodd" d="M1294.63 195.266C1183.92 125.103 1059.37 54.2471 974.54 13.2837C947.554 0.275116 942.018 -2.07751 946.585 1.52062C981.597 29.0602 1077.36 94.5184 1144.48 136.866C1224.06 186.963 1355.8 263.769 1358.02 261.278C1358.99 260.032 1388.74 207.306 1401.19 184.472C1417.39 154.718 1442.43 106.282 1441.88 105.59C1440.64 104.482 1395.94 164.959 1364.38 210.351C1347.22 234.846 1345.84 236.506 1345.42 232.493C1344.87 227.372 1341.55 224.881 1294.63 195.266ZM1029.62 92.581C1029.62 88.2909 1028.79 86.4918 1026.02 84.2776L1022.28 81.3714H511.211H0V225.989V370.606H636.039H1272.08L1276.09 366.592C1281.35 361.334 1281.35 356.352 1276.09 351.093L1272.08 347.079H647.802H23.5262V225.989V104.898L519.653 104.759C792.557 104.621 1017.03 104.344 1018.55 104.206C1020.07 104.067 1022.01 103.791 1022.7 103.652C1026.16 103.237 1029.62 97.7014 1029.62 92.581ZM1419.74 251.867C1433.44 223.913 1457.93 166.343 1470.53 132.852C1474.68 121.781 1477.72 112.509 1477.45 112.232C1476.48 111.264 1441.6 164.682 1422.92 195.543C1394.69 242.319 1378.22 272.764 1380.16 274.563C1382.1 276.501 1424.58 302.795 1453.78 320.37C1482.43 337.531 1520.49 358.981 1554.12 377.248C1597.85 400.775 1669.67 435.372 1671.33 433.711C1671.75 433.435 1665.66 428.176 1657.91 422.225C1596.6 375.173 1514.67 321.477 1417.8 265.014C1407.15 258.787 1406.87 258.51 1411.71 258.51C1416.14 258.51 1416.83 257.957 1419.74 251.867ZM122.613 208.413C102.547 181.427 85.1096 158.593 83.8641 157.624C82.6186 156.655 79.0205 155.548 75.6991 155.133C65.0431 154.026 56.8781 162.745 58.5388 173.401C59.5075 179.628 145.447 294.907 153.197 300.442L158.456 304.179L158.871 280.652L159.148 257.265L122.613 208.413ZM294.493 182.534C300.444 174.369 300.582 166.343 295.047 160.115C292.14 156.794 289.788 155.687 285.083 155.271C281.623 154.995 277.333 155.548 275.534 156.379C273.735 157.347 255.606 180.32 235.124 207.583L197.897 257.126V280.652V304.317L202.049 301.826C204.401 300.442 208.276 297.259 210.906 294.491C214.504 290.617 274.703 210.074 294.493 182.534ZM360.633 158.987C359.654 158.142 358.472 157.531 357.045 156.794C349.711 153.057 342.237 154.441 336.287 160.945L332.827 164.682L332.412 226.127C331.997 293.938 332.135 295.045 340.577 299.335C345.697 302.103 354.277 301.964 358.152 299.197C365.349 294.215 365.349 293.661 365.349 228.064C365.349 172.595 365.349 163.062 360.633 158.987ZM516.193 188.07V171.325V154.718L475.783 154.856C453.503 154.856 433.713 155.41 431.776 155.963C407.004 163.575 392.473 191.391 401.33 214.502C405.205 225.02 415.584 236.368 425.133 240.658C432.329 243.841 433.713 243.979 474.261 244.394L516.055 244.81L516.47 229.172C516.747 220.591 516.747 213.118 516.47 212.426C516.193 211.873 498.479 211.458 476.891 211.458H437.865L434.128 207.583C429.146 202.462 429.146 196.373 433.99 191.53C436.066 189.592 438.972 187.931 440.633 187.793C442.155 187.793 459.869 187.793 479.935 187.931L516.193 188.07ZM660.534 181.289C666.761 174.369 664.27 161.084 655.967 156.794C652.645 154.995 644.204 154.718 604.071 154.718H556.326V171.325V187.931H602.687C651.815 187.931 654.998 187.516 660.534 181.289ZM737.755 162.468C736.233 160.254 733.603 157.624 731.804 156.655C726.822 153.888 719.072 154.303 714.921 157.624C713.596 158.665 712.498 159.515 711.588 160.533C707.171 165.474 707.171 174.365 707.171 228.064C707.171 293.523 707.309 295.183 715.336 299.197C720.733 301.964 729.175 301.964 733.188 299.197C740.384 294.215 740.384 293.661 740.384 227.788C740.384 169.526 740.246 166.343 737.755 162.468ZM891.229 187.931V171.325V154.718L859.123 154.856C823.003 154.856 818.159 155.687 805.843 163.99C791.173 173.677 779.964 191.114 775.535 211.042C768.062 244.81 784.807 283.282 813.316 297.398C819.682 300.581 821.204 300.719 855.663 301.134L891.229 301.549V285.773V269.858L861.89 269.305C829.646 268.751 826.739 268.059 817.467 260.032C808.749 252.283 806.119 244.81 806.119 228.064C806.119 215.056 806.535 212.842 809.856 206.476C814.008 198.726 821.342 192.083 828.954 189.454C832.137 188.347 843.485 187.793 862.582 187.931H891.229ZM1042.77 200.387C1035.71 181.012 1023.25 166.343 1007.75 159.146C1000.02 155.417 999.452 155.41 965.041 154.997L964.852 154.995L929.84 154.58L930.255 170.91L930.67 187.239L959.594 187.655C992.945 188.07 998.343 189.454 1006.92 199.418C1019.1 213.81 1018.82 243.564 1006.37 257.403C997.097 267.644 992.945 268.751 959.455 269.305L929.978 269.858V285.635V301.549L964.991 301.134L1000 300.719L1009.14 296.152C1040.41 280.791 1056.05 236.506 1042.77 200.387ZM1171.33 184.195C1147.8 169.802 1126.35 157.209 1123.72 156.379C1109.19 151.258 1091.62 158.454 1084.84 172.293C1081.52 178.927 1081.51 179.488 1081.1 232.006L1081.1 232.216C1080.82 268.474 1081.1 287.157 1082.21 290.755C1085.8 303.21 1105.18 305.424 1111.55 294.076C1112.93 291.862 1113.48 278.438 1114.04 245.225C1114.73 196.373 1115 194.851 1121.65 194.851C1125.94 194.851 1128.01 196.096 1215.06 249.376C1257.27 275.117 1294.36 297.398 1297.4 298.782C1305.15 302.38 1317.19 302.241 1325.08 298.505C1330.75 295.875 1338.23 288.956 1338.23 286.326C1338.23 285.773 1319.41 274.148 1296.43 260.309C1273.32 246.47 1245.51 229.587 1234.44 222.806C1230.83 220.6 1225.4 217.281 1218.9 213.306C1205.4 205.062 1187.3 193.999 1171.33 184.195ZM669.529 236.921C663.993 226.542 653.476 217.685 642.543 214.225C634.378 211.734 629.673 211.458 594.937 211.458H556.326V228.064V244.671H594.522C633.271 244.671 636.454 245.086 640.329 250.068C643.373 254.082 642.543 261.831 638.53 265.568L634.931 268.889L595.629 269.305L556.326 269.72V285.635V301.549L599.642 301.134L600.062 301.13C641.858 300.719 642.978 300.708 649.047 297.398C657.489 292.969 665.1 285.496 669.529 277.193C672.85 271.104 673.265 268.751 673.265 257.126C673.265 245.502 672.85 243.149 669.529 236.921ZM516.47 288.541C516.747 281.621 516.747 274.425 516.47 272.626L516.055 269.581H468.034C423.334 269.581 419.736 269.72 415.722 272.211C411.709 274.702 408.249 280.929 408.249 285.773C408.249 286.88 409.218 289.925 410.464 292.554C414.615 301.273 415.307 301.411 468.31 301.411H516.055L516.47 288.541ZM1530.59 406.31C1493.5 380.155 1453.92 354.414 1406.73 325.629C1366.18 300.996 1363.69 299.75 1362.17 301.688C1359.95 304.594 1334.08 351.231 1319.68 378.494C1300.86 414.337 1278.3 461.389 1266.82 488.929L1262.25 500L1266.68 495.018C1281.63 477.996 1334.77 401.19 1363.14 355.66C1374.76 336.977 1376.42 334.901 1376.98 338.361C1377.53 341.406 1380.85 344.035 1395.66 353.03C1462.78 394.132 1553.15 442.153 1601.17 462.081L1607.4 464.711L1602.55 460.421C1595.08 453.916 1551.35 420.98 1530.59 406.31Z" fill="white"/>
</svg>
